<svg xmlns="http://www.w3.org/2000/svg" viewBox="0 0 1633.00 700.00" fill="currentColor" role="img" aria-label="Santos Martinez">
  <g transform="translate(-50.00 700.00) scale(1 -1)"><path d="M50 108L50 208L184 208L184 149L217 116L424 116L458 150L458 266L425 299L160 299L52 407L52 592L160 700L476 700L584 592L584 491L450 491L450 551L417 584L219 584L186 551L186 448L219 415L484 415L592 307L592 110L482 0L158 0Z M702 700L828 700L1036 248L1038 248L1247 700L1373 700L1373 0L1242 0L1242 426L1240 426L1079 98L995 98L835 426L833 426L833 0L702 0Z"/></g>
  <circle cx="1538.00" cy="605.00" r="95" fill="#34d399"/>
</svg>